<?xml version="1.0" encoding="UTF-8" standalone="no"?>
<!-- Created with Inkscape (http://www.inkscape.org/) -->

<svg
   xmlns:dc="http://purl.org/dc/elements/1.1/"
   xmlns:cc="http://creativecommons.org/ns#"
   xmlns:rdf="http://www.w3.org/1999/02/22-rdf-syntax-ns#"
   xmlns:svg="http://www.w3.org/2000/svg"
   xmlns="http://www.w3.org/2000/svg"
   xmlns:sodipodi="http://sodipodi.sourceforge.net/DTD/sodipodi-0.dtd"
   xmlns:inkscape="http://www.inkscape.org/namespaces/inkscape"
   width="256"
   height="256"
   id="svg13094"
   version="1.1"
   inkscape:version="0.91 r13725"
   sodipodi:docname="RevistaDelConsumidor.inkscape.svg">
  <sodipodi:namedview
     id="base"
     pagecolor="#ffffff"
     bordercolor="#666666"
     borderopacity="1.0"
     inkscape:pageopacity="0"
     inkscape:pageshadow="2"
     inkscape:zoom="1.0385631"
     inkscape:cx="129.92574"
     inkscape:cy="127.03713"
     inkscape:document-units="px"
     inkscape:current-layer="layer1"
     showgrid="false"
     inkscape:snap-bbox="true"
     inkscape:bbox-paths="false"
     inkscape:bbox-nodes="false"
     inkscape:snap-bbox-edge-midpoints="false"
     inkscape:snap-bbox-midpoints="false"
     inkscape:object-paths="false"
     inkscape:snap-intersection-paths="false"
     inkscape:object-nodes="false"
     inkscape:snap-smooth-nodes="false"
     inkscape:snap-midpoints="false"
     inkscape:snap-object-midpoints="false"
     inkscape:snap-center="false"
     showguides="true"
     inkscape:guide-bbox="true"
     inkscape:window-width="1300"
     inkscape:window-height="1015"
     inkscape:window-x="51"
     inkscape:window-y="36"
     inkscape:window-maximized="0"
     inkscape:snap-global="true"
     fit-margin-top="0"
     fit-margin-left="0"
     fit-margin-right="0"
     fit-margin-bottom="0"
     showborder="true"
     inkscape:showpageshadow="false"
     inkscape:snap-page="true"
     inkscape:snap-grids="false"
     inkscape:snap-to-guides="false">
    <inkscape:grid
       type="xygrid"
       id="grid3075"
       empspacing="5"
       visible="true"
       enabled="true"
       snapvisiblegridlinesonly="true"
       originx="1.6362304e-08px"
       originy="18px" />
  </sodipodi:namedview>
  <defs
     id="defs13096">
    <linearGradient
       id="linearGradient4010">
      <stop
         style="stop-color:#ff5c41;stop-opacity:1;"
         offset="0"
         id="stop4012" />
      <stop
         style="stop-color:#e13c21;stop-opacity:1;"
         offset="1"
         id="stop4014" />
    </linearGradient>
    <linearGradient
       id="linearGradient3842">
      <stop
         style="stop-color:#ffac7e;stop-opacity:1"
         offset="0"
         id="stop3844" />
      <stop
         style="stop-color:#ff604f;stop-opacity:1"
         offset="1"
         id="stop3846" />
    </linearGradient>
    <linearGradient
       id="linearGradient5602">
      <stop
         offset="0"
         style="stop-color:#763b0c;stop-opacity:1"
         id="stop5604" />
      <stop
         offset="1"
         style="stop-color:#9a4209;stop-opacity:1"
         id="stop5606" />
    </linearGradient>
    <linearGradient
       id="linearGradient3862">
      <stop
         style="stop-color:#ffffff;stop-opacity:0.15513898;"
         offset="0"
         id="stop3864" />
      <stop
         style="stop-color:#ffffff;stop-opacity:0;"
         offset="1"
         id="stop3866" />
    </linearGradient>
    <linearGradient
       id="linearGradient3862-3">
      <stop
         style="stop-color:#fffa95;stop-opacity:0.31157079;"
         offset="0"
         id="stop3864-8" />
      <stop
         style="stop-color:#fff661;stop-opacity:0;"
         offset="1"
         id="stop3866-8" />
    </linearGradient>
    <linearGradient
       id="linearGradient3235">
      <stop
         style="stop-color:#fce94f;stop-opacity:1"
         offset="0"
         id="stop3237" />
      <stop
         id="stop3239"
         offset="0.5"
         style="stop-color:#fce94f;stop-opacity:1" />
      <stop
         style="stop-color:#edd400;stop-opacity:1"
         offset="0.75"
         id="stop3241" />
      <stop
         style="stop-color:#c4a000;stop-opacity:1"
         offset="1"
         id="stop3243" />
    </linearGradient>
    <linearGradient
       id="linearGradient19744">
      <stop
         style="stop-color:#ffffff;stop-opacity:1;"
         offset="0"
         id="stop19746" />
      <stop
         id="stop19748"
         offset="0.74871767"
         style="stop-color:#edd400;stop-opacity:1" />
      <stop
         style="stop-color:#ffffff;stop-opacity:1;"
         offset="1"
         id="stop19750" />
    </linearGradient>
    <linearGradient
       id="linearGradient14664">
      <stop
         id="stop14666"
         offset="0"
         style="stop-color:#ffffff;stop-opacity:1;" />
      <stop
         id="stop14668"
         offset="1"
         style="stop-color:#eeeeec;stop-opacity:1" />
    </linearGradient>
    <linearGradient
       id="linearGradient12294">
      <stop
         style="stop-color:#fef8c4;stop-opacity:1"
         offset="0"
         id="stop12296" />
      <stop
         style="stop-color:#edd400;stop-opacity:1"
         offset="1"
         id="stop12298" />
    </linearGradient>
    <linearGradient
       id="linearGradient8285">
      <stop
         id="stop8287"
         offset="0"
         style="stop-color:#ff6c6c;stop-opacity:1;" />
      <stop
         id="stop8289"
         offset="1"
         style="stop-color:#cc0000;stop-opacity:1;" />
    </linearGradient>
    <linearGradient
       id="linearGradient3570">
      <stop
         id="stop3572"
         offset="0"
         style="stop-color:#ffffff;stop-opacity:1;" />
      <stop
         id="stop3574"
         offset="1"
         style="stop-color:#fce94f;stop-opacity:1;" />
    </linearGradient>
    <linearGradient
       id="linearGradient2188">
      <stop
         id="stop2190"
         offset="0"
         style="stop-color:#c4a000;stop-opacity:1" />
      <stop
         style="stop-color:#edd400;stop-opacity:1"
         offset="0.20552924"
         id="stop3626" />
      <stop
         style="stop-color:#fce94f;stop-opacity:1"
         offset="0.5"
         id="stop2848" />
      <stop
         id="stop2850"
         offset="0.75"
         style="stop-color:#edd400;stop-opacity:1" />
      <stop
         id="stop2192"
         offset="1"
         style="stop-color:#c4a000;stop-opacity:1" />
    </linearGradient>
  </defs>
  <metadata
     id="metadata13099">
    <rdf:RDF>
      <cc:Work
         rdf:about="">
        <dc:format>image/svg+xml</dc:format>
        <dc:type
           rdf:resource="http://purl.org/dc/dcmitype/StillImage" />
        <dc:title></dc:title>
      </cc:Work>
    </rdf:RDF>
  </metadata>
  <g
     id="g3043"
     inkscape:export-filename="folder.png"
     inkscape:export-xdpi="90"
     inkscape:export-ydpi="90"
     transform="translate(-0.62500009,192.08228)" />
  <g
     id="scalable"
     transform="matrix(1.0385892,0,0,1.0385892,1214.7222,2070.8121)"
     inkscape:label="#g3701"
     style="fill:#ffffff" />
  <g
     inkscape:groupmode="layer"
     id="layer1"
     inkscape:label="Fondo"
     sodipodi:insensitive="true">
    <rect
       style="color:#000000;clip-rule:nonzero;display:inline;overflow:visible;visibility:visible;opacity:1;isolation:auto;mix-blend-mode:normal;color-interpolation:sRGB;color-interpolation-filters:linearRGB;solid-color:#000000;solid-opacity:1;fill:#861d05;fill-opacity:1;fill-rule:evenodd;stroke:none;stroke-width:0.2;stroke-linecap:round;stroke-linejoin:miter;stroke-miterlimit:4;stroke-dasharray:none;stroke-dashoffset:0;stroke-opacity:0.50196078;color-rendering:auto;image-rendering:auto;shape-rendering:auto;text-rendering:auto;enable-background:accumulate"
       id="rect4303"
       width="256"
       height="256"
       x="0"
       y="0" />
  </g>
  <g
     inkscape:groupmode="layer"
     id="layer2"
     inkscape:label="Logo"
     style="display:inline">
    <g
       id="g4256"
       transform="matrix(1.0675308,0,0,1.0675308,280.61847,144.03494)"
       style="fill:#f3a6a6;fill-opacity:1">
      <path
         d="m -170.12051,-54.723274 0,12.324219 -3.84766,0 0,-28.417969 10.29297,0 q 4.66797,0 7.1289,2.070312 2.46094,2.070313 2.46094,6.015625 0,2.1875 -1.15234,3.808594 -1.13281,1.621094 -3.32031,2.578125 2.34375,0.761719 3.35937,2.480469 1.03516,1.699219 1.03516,4.21875 l 0,2.675781 q 0,1.328125 0.29297,2.382813 0.29296,1.054687 1.01562,1.71875 l 0,0.46875 -3.96484,0 q -0.76172,-0.664063 -0.97657,-1.953125 -0.21484,-1.289063 -0.21484,-2.65625 l 0,-2.597657 q 0,-2.304687 -1.34766,-3.710937 -1.34765,-1.40625 -3.61328,-1.40625 l -7.14843,0 z m 0,-3.027344 6.05468,0 q 3.26172,0 4.6875,-1.230469 1.44532,-1.25 1.44532,-3.789062 0,-2.402344 -1.40625,-3.710938 -1.38672,-1.328125 -4.33594,-1.328125 l -6.44531,0 0,10.058594 z"
         style="font-style:normal;font-variant:normal;font-weight:normal;font-stretch:normal;font-size:40px;line-height:125%;font-family:Roboto;-inkscape-font-specification:'Roboto, Normal';text-align:start;letter-spacing:0px;word-spacing:0px;writing-mode:lr-tb;text-anchor:start;fill:#f3a6a6;fill-opacity:1;stroke:none;stroke-width:1px;stroke-linecap:butt;stroke-linejoin:miter;stroke-opacity:1"
         id="path4235"
         inkscape:connector-curvature="0" />
      <path
         d="m -144.2228,-41.988899 q -4.13536,0 -6.5873,-2.744707 -2.43364,-2.763005 -2.43364,-7.154537 l 0,-0.805114 q 0,-4.226849 2.50683,-7.02645 2.52514,-2.8179 5.96517,-2.8179 4.00728,0 6.05666,2.415342 2.04938,2.415343 2.04938,6.440913 l 0,2.25066 -12.84523,0 -0.0549,0.09149 q 0.0549,2.854496 1.44554,4.702598 1.39066,1.829805 3.89749,1.829805 1.8298,0 3.20216,-0.512345 1.39065,-0.530643 2.39704,-1.445545 l 1.40895,2.34215 q -1.06128,1.042988 -2.7996,1.738314 -1.73831,0.695326 -4.20855,0.695326 z m -0.54894,-17.71251 q -1.81151,0 -3.09237,1.537036 -1.28087,1.518738 -1.57364,3.824292 l 0.0366,0.09149 9.13072,0 0,-0.475748 q 0,-2.122574 -1.13448,-3.549822 -1.13448,-1.427248 -3.36684,-1.427248 z"
         style="font-style:normal;font-variant:normal;font-weight:normal;font-stretch:normal;font-size:40px;line-height:125%;font-family:Roboto;-inkscape-font-specification:'Roboto, Normal';text-align:start;letter-spacing:0px;word-spacing:0px;writing-mode:lr-tb;text-anchor:start;fill:#f3a6a6;fill-opacity:1;stroke:none;stroke-width:1px;stroke-linecap:butt;stroke-linejoin:miter;stroke-opacity:1"
         id="path4237"
         inkscape:connector-curvature="0" />
      <path
         d="m -129.08787,-48.210235 0.31106,1.390652 0.10979,0 0.34766,-1.390652 4.55622,-13.961411 3.6779,0 -7.28261,19.798488 -2.72642,0 -7.3741,-19.798488 3.6962,0 4.6843,13.961411 z"
         style="font-style:normal;font-variant:normal;font-weight:normal;font-stretch:normal;font-size:40px;line-height:125%;font-family:Roboto;-inkscape-font-specification:'Roboto, Normal';text-align:start;letter-spacing:0px;word-spacing:0px;writing-mode:lr-tb;text-anchor:start;fill:#f3a6a6;fill-opacity:1;stroke:none;stroke-width:1px;stroke-linecap:butt;stroke-linejoin:miter;stroke-opacity:1"
         id="path4239"
         inkscape:connector-curvature="0" />
      <path
         d="m -114.99993,-42.373158 -3.60471,0 0,-19.798488 3.60471,0 0,19.798488 z m 0,-24.867047 -3.60471,0 0,-3.677908 3.60471,0 0,3.677908 z"
         style="font-style:normal;font-variant:normal;font-weight:normal;font-stretch:normal;font-size:40px;line-height:125%;font-family:Roboto;-inkscape-font-specification:'Roboto, Normal';text-align:start;letter-spacing:0px;word-spacing:0px;writing-mode:lr-tb;text-anchor:start;fill:#f3a6a6;fill-opacity:1;stroke:none;stroke-width:1px;stroke-linecap:butt;stroke-linejoin:miter;stroke-opacity:1"
         id="path4241"
         inkscape:connector-curvature="0" />
      <path
         d="m -101.59933,-47.624698 q 0,-1.189372 -0.9149,-1.957891 -0.8966,-0.768517 -3.42173,-1.335757 -3.60472,-0.786817 -5.43452,-2.122574 -1.8115,-1.354056 -1.8115,-3.677907 0,-2.415343 2.04937,-4.117062 2.04939,-1.701718 5.34303,-1.701718 3.45833,0 5.48941,1.77491 2.049385,1.774912 1.957894,4.31834 l -0.03659,0.109789 -3.440034,0 q 0,-1.299162 -1.09789,-2.323853 -1.07958,-1.042988 -2.87279,-1.042988 -1.92129,0 -2.85449,0.841709 -0.9332,0.841711 -0.9332,2.031084 0,1.171075 0.82341,1.848103 0.82342,0.677028 3.34854,1.207671 3.7511,0.805114 5.580908,2.195766 1.829805,1.372354 1.829805,3.696205 0,2.634919 -2.140873,4.263446 -2.12258,1.628526 -5.56261,1.628526 -3.78769,0 -5.96516,-1.921295 -2.17747,-1.921295 -2.06768,-4.483022 l 0.0366,-0.109788 3.44003,0 q 0.0915,1.921295 1.42725,2.817899 1.33576,0.878306 3.12897,0.878306 1.92129,0 3.00088,-0.768517 1.09788,-0.786816 1.09788,-2.049382 z"
         style="font-style:normal;font-variant:normal;font-weight:normal;font-stretch:normal;font-size:40px;line-height:125%;font-family:Roboto;-inkscape-font-specification:'Roboto, Normal';text-align:start;letter-spacing:0px;word-spacing:0px;writing-mode:lr-tb;text-anchor:start;fill:#f3a6a6;fill-opacity:1;stroke:none;stroke-width:1px;stroke-linecap:butt;stroke-linejoin:miter;stroke-opacity:1"
         id="path4243"
         inkscape:connector-curvature="0" />
      <path
         d="m -91.084271,-66.947436 0,4.77579 3.751099,0 0,2.671515 -3.751099,0 0,12.021818 q 0,1.390651 0.567239,1.957891 0.585537,0.567239 1.537036,0.567239 0.311067,0 0.677028,-0.0732 0.384259,-0.0732 0.677028,-0.18298 l 0.475748,2.470237 q -0.402556,0.329364 -1.189372,0.530643 -0.768518,0.219577 -1.555334,0.219577 -2.195766,0 -3.494928,-1.31746 -1.299161,-1.335757 -1.299161,-4.171955 l 0,-12.021817 -3.147265,0 0,-2.671516 3.147265,0 0,-4.77579 3.604716,0 z"
         style="font-style:normal;font-variant:normal;font-weight:normal;font-stretch:normal;font-size:40px;line-height:125%;font-family:Roboto;-inkscape-font-specification:'Roboto, Normal';text-align:start;letter-spacing:0px;word-spacing:0px;writing-mode:lr-tb;text-anchor:start;fill:#f3a6a6;fill-opacity:1;stroke:none;stroke-width:1px;stroke-linecap:butt;stroke-linejoin:miter;stroke-opacity:1"
         id="path4245"
         inkscape:connector-curvature="0" />
      <path
         d="m -72.806074,-42.373158 q -0.182981,-0.896605 -0.292769,-1.573632 -0.09149,-0.695325 -0.109789,-1.390652 -1.006392,1.427248 -2.634919,2.397045 -1.610228,0.951498 -3.476628,0.951498 -3.09237,0 -4.720897,-1.573632 -1.610228,-1.59193 -1.610228,-4.373233 0,-2.836198 2.287256,-4.428128 2.305554,-1.610228 6.239634,-1.610228 l 3.915782,0 0,-1.957892 q 0,-1.738314 -1.061286,-2.744707 -1.061287,-1.02469 -3.00088,-1.02469 -1.738315,0 -2.836198,0.896604 -1.079585,0.878306 -1.079585,2.122573 l -3.440033,0 -0.03659,-0.109787 q -0.109788,-2.159171 2.031084,-3.952379 2.159169,-1.793209 5.562607,-1.793209 3.366841,0 5.416222,1.720017 2.049381,1.701718 2.049381,4.922175 l 0,9.533283 q 0,1.061287 0.109788,2.049381 0.109789,0.988095 0.402558,1.939593 l -3.714504,0 z m -5.983462,-2.634918 q 1.957891,0 3.531523,-1.006393 1.573632,-1.006393 2.049381,-2.305555 l 0,-3.220456 -4.043868,0 q -2.177468,0 -3.494928,1.097883 -1.29916,1.097882 -1.29916,2.580025 0,1.31746 0.823412,2.085977 0.823412,0.768519 2.43364,0.768519 z"
         style="font-style:normal;font-variant:normal;font-weight:normal;font-stretch:normal;font-size:40px;line-height:125%;font-family:Roboto;-inkscape-font-specification:'Roboto, Normal';text-align:start;letter-spacing:0px;word-spacing:0px;writing-mode:lr-tb;text-anchor:start;fill:#f3a6a6;fill-opacity:1;stroke:none;stroke-width:1px;stroke-linecap:butt;stroke-linejoin:miter;stroke-opacity:1"
         id="path4247"
         inkscape:connector-curvature="0" />
    </g>
    <g
       id="g4304"
       transform="translate(0,4)"
       style="fill:#000000;fill-opacity:0.2745098">
      <path
         inkscape:connector-curvature="0"
         id="path4306"
         style="font-style:normal;font-variant:normal;font-weight:500;font-stretch:normal;font-size:40px;line-height:125%;font-family:Oswald;-inkscape-font-specification:'Oswald, Medium';text-align:start;letter-spacing:0px;word-spacing:0px;writing-mode:lr-tb;text-anchor:start;fill:#000000;fill-opacity:0.2745098;stroke:none;stroke-width:1px;stroke-linecap:butt;stroke-linejoin:miter;stroke-opacity:1"
         d="m 61.118232,188.03845 q -7.247144,0 -12.801031,-1.82872 -5.553922,-1.82872 -9.21134,-5.07978 -3.589726,-3.25106 -5.892552,-8.05992 -2.2351,-4.80887 -3.183335,-10.29503 -0.880509,-5.5539 -0.880509,-12.4624 l 0,-39.14819 q 0,-7.31489 0.948235,-12.936519 0.948235,-5.689357 3.183335,-10.498219 2.2351,-4.876591 5.824826,-7.99219 3.657418,-3.115602 9.143579,-4.876592 5.553922,-1.760993 12.868792,-1.760993 8.398592,0 14.358871,2.235104 5.960279,2.235107 9.414518,6.569855 3.454239,4.334748 5.012044,10.159564 1.557804,5.757087 1.557804,13.47836 l 0,9.61772 -19.709545,0 0,-9.54999 q 0,-8.398576 -0.880508,-11.310986 -1.760983,-5.689357 -8.60177,-6.095738 -0.541844,0 -1.083687,0 -2.573731,0 -4.537927,0.609573 -1.89647,0.609573 -3.115609,1.964182 -1.219139,1.286879 -1.964161,2.776951 -0.745056,1.490068 -1.151448,3.928363 -0.338457,2.370567 -0.474082,4.402475 -0.06762,2.03192 -0.06762,5.14752 l 0,47.54677 q 0,9.88864 2.438313,14.08793 2.506039,4.19928 8.872674,4.19928 2.167374,0 3.792905,-0.47411 1.693257,-0.54184 2.776944,-1.28688 1.151447,-0.81276 1.896469,-2.2351 0.812748,-1.49007 1.219139,-2.70922 0.406392,-1.28688 0.60957,-3.52198 0.203213,-2.23511 0.203213,-3.7929 0.06762,-1.55781 0.06762,-4.26702 l 0,-10.02411 19.709545,0 0,9.21134 q 0,6.29893 -0.880474,11.31099 -0.880509,5.01205 -3.047883,9.41452 -2.099648,4.40249 -5.486161,7.31489 -3.386513,2.91241 -8.669496,4.60567 -5.282983,1.62553 -12.259223,1.62553 z" />
      <path
         inkscape:connector-curvature="0"
         id="path4308"
         style="font-style:normal;font-variant:normal;font-weight:500;font-stretch:normal;font-size:40px;line-height:125%;font-family:Oswald;-inkscape-font-specification:'Oswald, Medium';text-align:start;letter-spacing:0px;word-spacing:0px;writing-mode:lr-tb;text-anchor:start;fill:#000000;fill-opacity:0.2745098;stroke:none;stroke-width:1px;stroke-linecap:butt;stroke-linejoin:miter;stroke-opacity:1"
         d="m 120.51749,187.97072 q -12.93651,0 -19.30318,-7.24716 -6.298913,-7.31488 -6.298913,-20.86097 l 0,-26.4826 q 0,-13.54609 6.298913,-20.79325 6.36667,-7.31488 19.30318,-7.31488 13.00425,0 19.37092,7.31488 6.43439,7.24716 6.43439,20.79325 l 0,26.4826 q 0,13.54609 -6.43439,20.86097 -6.36667,7.24716 -19.37092,7.24716 z m 0.0676,-13.34289 q 2.30282,0 3.72517,-1.01596 1.49008,-1.01596 2.09965,-3.1156 0.6773,-2.16737 0.88048,-4.13156 0.20321,-2.03191 0.20321,-5.21524 l 0,-29.05636 q 0,-2.50602 -0.13559,-4.13156 -0.0676,-1.69326 -0.47412,-3.65744 -0.3388,-1.96418 -1.08369,-3.04787 -0.74505,-1.15142 -2.03192,-1.89645 -1.28686,-0.81277 -3.18333,-0.81277 -2.30283,0 -3.79291,1.08369 -1.42235,1.01596 -2.09965,3.18333 -0.60956,2.09964 -0.81274,4.13156 -0.20322,1.96418 -0.20322,5.14751 l 0,29.05636 q 0,2.50602 0.0676,4.19929 0.13559,1.62553 0.47411,3.58971 0.40639,1.89645 1.15142,3.04787 0.74505,1.08369 2.03192,1.89645 1.2869,0.74504 3.18333,0.74504 z" />
      <path
         inkscape:connector-curvature="0"
         id="path4310"
         style="font-style:normal;font-variant:normal;font-weight:500;font-stretch:normal;font-size:40px;line-height:125%;font-family:Oswald;-inkscape-font-specification:'Oswald, Medium';text-align:start;letter-spacing:0px;word-spacing:0px;writing-mode:lr-tb;text-anchor:start;fill:#000000;fill-opacity:0.2745098;stroke:none;stroke-width:1px;stroke-linecap:butt;stroke-linejoin:miter;stroke-opacity:1"
         d="m 151.06356,186.68384 0,-80.19284 18.96453,0 0,7.85673 q 9.68545,-9.07587 19.57412,-9.07587 6.84076,0 9.95636,5.01205 3.18334,5.01205 3.18334,12.32694 l 0,64.07299 -18.96452,0 0,-59.87371 q 0,-3.7929 -1.08369,-5.62162 -1.08369,-1.82872 -4.1993,-1.76099 -3.52196,0.0677 -8.46631,3.65744 l 0,63.59888 -18.96453,0 z" />
      <path
         inkscape:connector-curvature="0"
         id="path4312"
         style="font-style:normal;font-variant:normal;font-weight:500;font-stretch:normal;font-size:40px;line-height:125%;font-family:Oswald;-inkscape-font-specification:'Oswald, Medium';text-align:start;letter-spacing:0px;word-spacing:0px;writing-mode:lr-tb;text-anchor:start;fill:#000000;fill-opacity:0.2745098;stroke:none;stroke-width:1px;stroke-linecap:butt;stroke-linejoin:miter;stroke-opacity:1"
         d="m 230.861,187.97072 q -9.95636,0 -16.32303,-5.55389 -6.36667,-5.5539 -8.73722,-15.98439 l 14.35887,-5.21524 q 1.49004,6.63758 4.19926,10.09184 2.70922,3.38652 6.77306,3.25106 2.98013,-0.0677 4.8766,-2.09965 1.96416,-2.09964 1.8287,-5.07978 -0.27083,-4.33475 -7.92444,-10.9046 l -10.76914,-9.21134 q -11.64965,-10.02411 -11.37871,-20.92871 0.20321,-9.61772 6.50212,-15.30708 6.36663,-5.75708 16.18758,-5.75708 9.41452,0 15.30707,5.68935 5.89255,5.68936 7.65353,15.23935 l -12.4624,5.21524 q -2.57376,-12.4624 -9.61773,-12.53013 -2.98012,-0.0677 -4.80886,1.82873 -1.76099,1.89645 -1.76099,4.53794 -0.0676,3.65744 6.7053,9.54999 l 10.97236,9.95637 q 2.77694,2.4383 4.60565,4.40248 1.82875,1.89645 3.79291,4.6734 2.03192,2.77695 2.98016,5.96028 1.01596,3.18333 1.01596,6.84077 0,10.15957 -6.77307,15.7812 -6.7053,5.55389 -17.20354,5.55389 z" />
    </g>
    <g
       id="g4298"
       transform="translate(-4,0)">
      <path
         d="m 61.118232,188.03845 q -7.247144,0 -12.801031,-1.82872 -5.553922,-1.82872 -9.21134,-5.07978 -3.589726,-3.25106 -5.892552,-8.05992 -2.2351,-4.80887 -3.183335,-10.29503 -0.880509,-5.5539 -0.880509,-12.4624 l 0,-39.14819 q 0,-7.31489 0.948235,-12.936519 0.948235,-5.689357 3.183335,-10.498219 2.2351,-4.876591 5.824826,-7.99219 3.657418,-3.115602 9.143579,-4.876592 5.553922,-1.760993 12.868792,-1.760993 8.398592,0 14.358871,2.235104 5.960279,2.235107 9.414518,6.569855 3.454239,4.334748 5.012044,10.159564 1.557804,5.757087 1.557804,13.47836 l 0,9.61772 -19.709545,0 0,-9.54999 q 0,-8.398576 -0.880508,-11.310986 -1.760983,-5.689357 -8.60177,-6.095738 -0.541844,0 -1.083687,0 -2.573731,0 -4.537927,0.609573 -1.89647,0.609573 -3.115609,1.964182 -1.219139,1.286879 -1.964161,2.776951 -0.745056,1.490068 -1.151448,3.928363 -0.338457,2.370567 -0.474082,4.402475 -0.06762,2.03192 -0.06762,5.14752 l 0,47.54677 q 0,9.88864 2.438313,14.08793 2.506039,4.19928 8.872674,4.19928 2.167374,0 3.792905,-0.47411 1.693257,-0.54184 2.776944,-1.28688 1.151447,-0.81276 1.896469,-2.2351 0.812748,-1.49007 1.219139,-2.70922 0.406392,-1.28688 0.60957,-3.52198 0.203213,-2.23511 0.203213,-3.7929 0.06762,-1.55781 0.06762,-4.26702 l 0,-10.02411 19.709545,0 0,9.21134 q 0,6.29893 -0.880474,11.31099 -0.880509,5.01205 -3.047883,9.41452 -2.099648,4.40249 -5.486161,7.31489 -3.386513,2.91241 -8.669496,4.60567 -5.282983,1.62553 -12.259223,1.62553 z"
         style="font-style:normal;font-variant:normal;font-weight:500;font-stretch:normal;font-size:40px;line-height:125%;font-family:Oswald;-inkscape-font-specification:'Oswald, Medium';text-align:start;letter-spacing:0px;word-spacing:0px;writing-mode:lr-tb;text-anchor:start;fill:#ffffff;fill-opacity:1;stroke:none;stroke-width:1px;stroke-linecap:butt;stroke-linejoin:miter;stroke-opacity:1"
         id="path4214"
         inkscape:connector-curvature="0" />
      <path
         d="m 120.51749,187.97072 q -12.93651,0 -19.30318,-7.24716 -6.298913,-7.31488 -6.298913,-20.86097 l 0,-26.4826 q 0,-13.54609 6.298913,-20.79325 6.36667,-7.31488 19.30318,-7.31488 13.00425,0 19.37092,7.31488 6.43439,7.24716 6.43439,20.79325 l 0,26.4826 q 0,13.54609 -6.43439,20.86097 -6.36667,7.24716 -19.37092,7.24716 z m 0.0676,-13.34289 q 2.30282,0 3.72517,-1.01596 1.49008,-1.01596 2.09965,-3.1156 0.6773,-2.16737 0.88048,-4.13156 0.20321,-2.03191 0.20321,-5.21524 l 0,-29.05636 q 0,-2.50602 -0.13559,-4.13156 -0.0676,-1.69326 -0.47412,-3.65744 -0.3388,-1.96418 -1.08369,-3.04787 -0.74505,-1.15142 -2.03192,-1.89645 -1.28686,-0.81277 -3.18333,-0.81277 -2.30283,0 -3.79291,1.08369 -1.42235,1.01596 -2.09965,3.18333 -0.60956,2.09964 -0.81274,4.13156 -0.20322,1.96418 -0.20322,5.14751 l 0,29.05636 q 0,2.50602 0.0676,4.19929 0.13559,1.62553 0.47411,3.58971 0.40639,1.89645 1.15142,3.04787 0.74505,1.08369 2.03192,1.89645 1.2869,0.74504 3.18333,0.74504 z"
         style="font-style:normal;font-variant:normal;font-weight:500;font-stretch:normal;font-size:40px;line-height:125%;font-family:Oswald;-inkscape-font-specification:'Oswald, Medium';text-align:start;letter-spacing:0px;word-spacing:0px;writing-mode:lr-tb;text-anchor:start;fill:#ffffff;fill-opacity:1;stroke:none;stroke-width:1px;stroke-linecap:butt;stroke-linejoin:miter;stroke-opacity:1"
         id="path4216"
         inkscape:connector-curvature="0" />
      <path
         d="m 151.06356,186.68384 0,-80.19284 18.96453,0 0,7.85673 q 9.68545,-9.07587 19.57412,-9.07587 6.84076,0 9.95636,5.01205 3.18334,5.01205 3.18334,12.32694 l 0,64.07299 -18.96452,0 0,-59.87371 q 0,-3.7929 -1.08369,-5.62162 -1.08369,-1.82872 -4.1993,-1.76099 -3.52196,0.0677 -8.46631,3.65744 l 0,63.59888 -18.96453,0 z"
         style="font-style:normal;font-variant:normal;font-weight:500;font-stretch:normal;font-size:40px;line-height:125%;font-family:Oswald;-inkscape-font-specification:'Oswald, Medium';text-align:start;letter-spacing:0px;word-spacing:0px;writing-mode:lr-tb;text-anchor:start;fill:#ffffff;fill-opacity:1;stroke:none;stroke-width:1px;stroke-linecap:butt;stroke-linejoin:miter;stroke-opacity:1"
         id="path4218"
         inkscape:connector-curvature="0" />
      <path
         d="m 230.861,187.97072 q -9.95636,0 -16.32303,-5.55389 -6.36667,-5.5539 -8.73722,-15.98439 l 14.35887,-5.21524 q 1.49004,6.63758 4.19926,10.09184 2.70922,3.38652 6.77306,3.25106 2.98013,-0.0677 4.8766,-2.09965 1.96416,-2.09964 1.8287,-5.07978 -0.27083,-4.33475 -7.92444,-10.9046 l -10.76914,-9.21134 q -11.64965,-10.02411 -11.37871,-20.92871 0.20321,-9.61772 6.50212,-15.30708 6.36663,-5.75708 16.18758,-5.75708 9.41452,0 15.30707,5.68935 5.89255,5.68936 7.65353,15.23935 l -12.4624,5.21524 q -2.57376,-12.4624 -9.61773,-12.53013 -2.98012,-0.0677 -4.80886,1.82873 -1.76099,1.89645 -1.76099,4.53794 -0.0676,3.65744 6.7053,9.54999 l 10.97236,9.95637 q 2.77694,2.4383 4.60565,4.40248 1.82875,1.89645 3.79291,4.6734 2.03192,2.77695 2.98016,5.96028 1.01596,3.18333 1.01596,6.84077 0,10.15957 -6.77307,15.7812 -6.7053,5.55389 -17.20354,5.55389 z"
         style="font-style:normal;font-variant:normal;font-weight:500;font-stretch:normal;font-size:40px;line-height:125%;font-family:Oswald;-inkscape-font-specification:'Oswald, Medium';text-align:start;letter-spacing:0px;word-spacing:0px;writing-mode:lr-tb;text-anchor:start;fill:#ffffff;fill-opacity:1;stroke:none;stroke-width:1px;stroke-linecap:butt;stroke-linejoin:miter;stroke-opacity:1"
         id="path4220"
         inkscape:connector-curvature="0" />
    </g>
  </g>
</svg>
